<svg xmlns="http://www.w3.org/2000/svg" version="1.1" xmlns:xlink="http://www.w3.org/1999/xlink" xmlns:svgjs="http://svgjs.dev/svgjs" width="1440" height="615" preserveAspectRatio="none" viewBox="0 0 1440 615"><g clip-path="url(&quot;#SvgjsClipPath1121&quot;)" fill="none"><path d="M1113.37 480.51C1132.58 479.58 1151.9 476.85 1166.43 464.26 1182 450.76 1192.98 431.81 1193.33 411.2 1193.69 390.29 1183.62 370.5 1168.27 356.3 1153.48 342.63 1133.51 337.15 1113.37 337.24 1093.33 337.33 1073.77 343.29 1058.94 356.77 1043.36 370.93 1032.74 390.16 1031.99 411.2 1031.21 432.95 1038.32 455.57 1054.89 469.68 1070.58 483.04 1092.78 481.51 1113.37 480.51" fill="rgba(250, 176, 87, 1)" stroke="none"></path><path d="M1118.37 461.51C1137.58 460.58 1156.9 457.85 1171.43 445.26 1187 431.76 1197.98 412.81 1198.33 392.2 1198.69 371.29 1188.62 351.5 1173.27 337.3 1158.48 323.63 1138.51 318.15 1118.37 318.24 1098.33 318.33 1078.77 324.29 1063.94 337.77 1048.36 351.93 1037.74 371.16 1036.99 392.2 1036.21 413.95 1043.32 436.57 1059.89 450.68 1075.58 464.04 1097.78 462.51 1118.37 461.51" fill="none" stroke-width="2" stroke="#e58007"></path><path d="M1419.17 616.52C1429.34 616.25 1438.37 610.7 1445.42 603.37 1452.32 596.2 1456.67 587.06 1457.08 577.12 1457.51 566.73 1454.84 556.15 1447.68 548.61 1440.35 540.9 1429.77 536.25 1419.17 537.21 1409.25 538.11 1402.34 546.2 1395.39 553.34 1388.59 560.33 1381.07 567.4 1380.33 577.12 1379.55 587.43 1384.24 597.43 1391.5 604.79 1398.81 612.2 1408.76 616.8 1419.17 616.52" fill="rgba(249, 214, 72, 1)" stroke="none"></path><path d="M1436.17 601.52C1446.34 601.25 1455.37 595.7 1462.42 588.37 1469.32 581.2 1473.67 572.06 1474.08 562.12 1474.51 551.73 1471.84 541.15 1464.68 533.61 1457.35 525.9 1446.77 521.25 1436.17 522.21 1426.25 523.11 1419.34 531.2 1412.39 538.34 1405.59 545.33 1398.07 552.4 1397.33 562.12 1396.55 572.43 1401.24 582.43 1408.5 589.79 1415.81 597.2 1425.76 601.8 1436.17 601.52" fill="none" stroke-width="2" stroke="#dab007"></path><path d="M1297.62 305.34C1310.16 304.98 1322.24 300.47 1331.13 291.62 1340.05 282.75 1344.46 270.68 1345.07 258.11 1345.72 244.82 1343.5 231.03 1334.57 221.16 1325.25 210.86 1311.49 205 1297.62 205.65 1284.27 206.28 1273.01 214.62 1263.99 224.48 1255.44 233.83 1249.96 245.44 1249.62 258.11 1249.27 271.15 1252.85 284.44 1262.14 293.59 1271.37 302.67 1284.68 305.71 1297.62 305.34" fill="rgba(249, 214, 72, 1)" stroke="none"></path><path d="M1282.62 294.34C1295.16 293.98 1307.24 289.47 1316.13 280.62 1325.05 271.75 1329.46 259.68 1330.07 247.11 1330.72 233.82 1328.5 220.03 1319.57 210.16 1310.25 199.86 1296.49 194 1282.62 194.65 1269.27 195.28 1258.01 203.62 1248.99 213.48 1240.44 222.83 1234.96 234.44 1234.62 247.11 1234.27 260.15 1237.85 273.44 1247.14 282.59 1256.37 291.67 1269.68 294.71 1282.62 294.34" fill="none" stroke-width="2" stroke="#dab007"></path><path d="M611.97 639.5C624.88 638.98 635.78 630.87 644.57 621.4 652.98 612.34 658.33 601.14 659.06 588.8 659.84 575.6 657.66 561.79 648.68 552.09 639.42 542.08 625.57 536.9 611.97 537.92 599.18 538.88 589.21 547.9 580.38 557.21 571.86 566.19 564.41 576.44 563.72 588.8 562.99 601.81 567.66 614.69 576.64 624.13 585.84 633.8 598.63 640.03 611.97 639.5" fill="rgba(250, 176, 87, 1)" stroke="none"></path><path d="M594.97 620.5C607.88 619.98 618.78 611.87 627.57 602.4 635.98 593.34 641.33 582.14 642.06 569.8 642.84 556.6 640.66 542.79 631.68 533.09 622.42 523.08 608.57 517.9 594.97 518.92 582.18 519.88 572.21 528.9 563.38 538.21 554.86 547.19 547.41 557.44 546.72 569.8 545.99 582.81 550.66 595.69 559.64 605.13 568.84 614.8 581.63 621.03 594.97 620.5" fill="none" stroke-width="2" stroke="#e58007"></path><path d="M1073.18 93.58C1091.08 93.68 1108.31 86.67 1120.98 74.03 1133.67 61.37 1141.69 44.12 1140.68 26.23 1139.71 9.15 1128.43-4.84 1115.87-16.46 1103.91-27.53 1089.41-34.67 1073.18-36.21 1054.98-37.94 1035.03-37.74 1021.54-25.41 1007.66-12.73 1004.02 7.45 1004.85 26.23 1005.64 44.14 1013.14 60.91 1025.91 73.5 1038.59 86 1055.38 93.48 1073.18 93.58" fill="rgba(250, 176, 87, 1)" stroke="none"></path><path d="M1067.18 104.58C1085.08 104.68 1102.31 97.67 1114.98 85.03 1127.67 72.37 1135.69 55.12 1134.68 37.23 1133.71 20.15 1122.43 6.16 1109.87-5.46 1097.91-16.53 1083.41-23.67 1067.18-25.21 1048.98-26.94 1029.03-26.74 1015.54-14.41 1001.66-1.73 998.02 18.45 998.85 37.23 999.64 55.14 1007.14 71.91 1019.91 84.5 1032.59 97 1049.38 104.48 1067.18 104.58" fill="none" stroke-width="2" stroke="#e58007"></path><path d="M106.47 665.84C124.54 664.15 138.5 651.49 151.11 638.43 163.42 625.68 176.47 611.5 176.04 593.79 175.62 576.34 161.33 563.62 149 551.26 136.64 538.88 123.95 524.7 106.47 524.09 88.61 523.47 74 536.07 60.86 548.18 46.95 561 32.43 574.93 30.86 593.79 29.19 613.85 38.04 633.76 52.61 647.65 66.87 661.24 86.86 667.68 106.47 665.84" fill="rgba(249, 214, 72, 1)" stroke="none"></path><path d="M96.47 684.84C114.54 683.15 128.5 670.49 141.11 657.43 153.42 644.68 166.47 630.5 166.04 612.79 165.62 595.34 151.33 582.62 139 570.26 126.64 557.88 113.95 543.7 96.47 543.09 78.61 542.47 64 555.07 50.86 567.18 36.95 580 22.43 593.93 20.86 612.79 19.19 632.85 28.04 652.76 42.61 666.65 56.87 680.24 76.86 686.68 96.47 684.84" fill="none" stroke-width="2" stroke="#dab007"></path><path d="M1418.69 485.18C1440.74 483.21 1455.8 464.61 1471.06 448.56 1485.74 433.12 1501.72 417.44 1503.3 396.19 1504.98 373.63 1496.36 350.45 1479.48 335.4 1463.31 320.98 1440.35 321.31 1418.69 320.75 1396.16 320.16 1371.94 317.69 1354.65 332.15 1336.25 347.53 1328.2 372.21 1328.46 396.19 1328.72 419.91 1339.16 442.17 1356.05 458.83 1372.82 475.37 1395.23 487.28 1418.69 485.18" fill="rgba(250, 176, 87, 1)" stroke="none"></path><path d="M1425.69 469.18C1447.74 467.21 1462.8 448.61 1478.06 432.56 1492.74 417.12 1508.72 401.44 1510.3 380.19 1511.98 357.63 1503.36 334.45 1486.48 319.4 1470.31 304.98 1447.35 305.31 1425.69 304.75 1403.16 304.16 1378.94 301.69 1361.65 316.15 1343.25 331.53 1335.2 356.21 1335.46 380.19 1335.72 403.91 1346.16 426.17 1363.05 442.83 1379.82 459.37 1402.23 471.28 1425.69 469.18" fill="none" stroke-width="2" stroke="#e58007"></path><path d="M1284.84 114.07C1294.65 113.43 1304.97 112.71 1311.97 105.81 1319.01 98.88 1321.23 88.55 1320.77 78.68 1320.33 69.28 1315.59 61.19 1309.56 53.96 1302.73 45.76 1295.48 36.34 1284.84 35.58 1273.77 34.79 1264.07 42.21 1256.32 50.16 1248.69 57.99 1243.29 67.76 1242.85 78.68 1242.39 90.06 1245.19 102.28 1253.9 109.62 1262.18 116.6 1274.03 114.78 1284.84 114.07" fill="rgba(109, 190, 203, 1)" stroke="none"></path><path d="M1302.84 106.07C1312.65 105.43 1322.97 104.71 1329.97 97.81 1337.01 90.88 1339.23 80.55 1338.77 70.68 1338.33 61.28 1333.59 53.19 1327.56 45.96 1320.73 37.76 1313.48 28.34 1302.84 27.58 1291.77 26.79 1282.07 34.21 1274.32 42.16 1266.69 49.99 1261.29 59.76 1260.85 70.68 1260.39 82.06 1263.19 94.28 1271.9 101.62 1280.18 108.6 1292.03 106.78 1302.84 106.07" fill="none" stroke-width="2" stroke="#3993a1"></path></g><defs><clipPath id="SvgjsClipPath1121"><rect width="1440" height="615" x="0" y="0"></rect></clipPath></defs></svg>